<svg viewBox="0 0 16 16" width="16" height="16"><path fill="currentColor" d="M5.355 5.648c-0.672 0.677 -1.248 1.267 -1.728 1.771L0.363 4.155a1 1 0 0 1 0 -1.414L2.717 0.387a1 1 0 0 1 1.414 0l2.038 2.038c-0.285 0.476 -0.394 1.073 -0.33 1.792L3.425 1.801 1.777 3.448l1.034 1.034 0.477 -0.477a0.3 0.3 0 0 1 0.424 0l0.283 0.283a0.3 0.3 0 0 1 0 0.424l-0.477 0.477 0.793 0.793 0.477 -0.477a0.3 0.3 0 0 1 0.424 0l0.143 0.143zm6.525 4.61a5.282 5.282 0 0 0 1.761 -0.36l1.896 1.895a1 1 0 0 1 0 1.414l-2.354 2.354a1 1 0 0 1 -1.414 0L8.58 12.373a66.571 66.571 0 0 0 1.754 -1.745l0.16 0.16a0.3 0.3 0 0 1 0 0.424l-0.477 0.477 0.793 0.793 0.477 -0.477a0.3 0.3 0 0 1 0.424 0l0.283 0.283a0.3 0.3 0 0 1 0 0.424l-0.477 0.477 0.958 0.957 1.646 -1.646 -2.242 -2.242zm0.661 -5.826 1.51 -1.51a0.697 0.697 0 0 1 1.1 0.152c0.94 1.67 0.744 3.259 -0.575 4.577 -1.153 1.154 -2.565 1.502 -4.127 1.02a0.232 0.232 0 0 0 -0.233 0.057L3.71 15.234a2.09 2.09 0 1 1 -2.955 -2.956L7.26 5.772c0.06 -0.06 0.083 -0.15 0.057 -0.232 -0.483 -1.562 -0.134 -2.974 1.02 -4.128C9.655 0.094 11.244 -0.1 12.914 0.838a0.697 0.697 0 0 1 0.15 1.1l-1.509 1.51 0.165 0.82 0.82 0.164zM1.74 14.25a0.697 0.697 0 0 0 0.985 0l6.506 -6.506a1.625 1.625 0 0 1 1.63 -0.404c1.068 0.33 1.942 0.115 2.73 -0.673 0.63 -0.63 0.862 -1.277 0.702 -2.015l-0.854 0.854a1.161 1.161 0 0 1 -1.049 0.318l-1.095 -0.22a1.161 1.161 0 0 1 -0.91 -0.91l-0.22 -1.094a1.168 1.168 0 0 1 0.318 -1.05l0.855 -0.854c-0.738 -0.16 -1.386 0.073 -2.016 0.702 -0.787 0.788 -1.003 1.662 -0.673 2.73a1.625 1.625 0 0 1 -0.403 1.63L1.74 13.264a0.697 0.697 0 0 0 0 0.986z"/></svg>